<svg width="24" height="24" viewBox="0 0 24 24" fill="none" xmlns="http://www.w3.org/2000/svg">
<path d="M23.3223 1.60089C22.8702 1.14901 22.3272 0.923096 21.6924 0.923096H2.30774C1.67314 0.923096 1.12983 1.14896 0.677845 1.60089C0.225965 2.05287 0 2.59599 0 3.23064V20.769C0 21.4038 0.225965 21.947 0.677845 22.3989C1.12983 22.8508 1.67309 23.0768 2.30774 23.0768H21.6924C22.3272 23.0768 22.8702 22.8508 23.3223 22.3989C23.7742 21.947 24 21.4038 24 20.769V3.23064C24 2.59599 23.7742 2.05287 23.3223 1.60089ZM11.077 21.2308H2.30774C2.18276 21.2308 2.07461 21.1849 1.98327 21.094C1.89188 21.0025 1.84627 20.8945 1.84627 20.7693V4.61558H11.0771V21.2308H11.077ZM22.1538 20.769C22.1538 20.8942 22.1082 21.0024 22.0169 21.0937C21.9253 21.1849 21.8174 21.2306 21.6922 21.2306H12.9231V4.61522H22.1541V20.769H22.1538Z" fill="black"/>
</svg>
