<svg width="24" height="24" viewBox="0 0 24 24" fill="none" xmlns="http://www.w3.org/2000/svg">
<g clip-path="url(#clip0)">
<path d="M20.9038 4.06401C20.7688 3.87153 20.5403 3.78482 20.3166 3.81804C20.3081 3.81602 20.2996 3.81237 20.2911 3.81116L11.1311 2.46663C11.031 2.45164 10.9289 2.46258 10.8336 2.49743L3.49712 5.18647C3.49388 5.18769 3.49104 5.18972 3.4878 5.19093C3.4801 5.19417 3.47281 5.19904 3.4647 5.20187C3.42458 5.2197 3.3873 5.24077 3.35286 5.26549C3.34233 5.27319 3.33219 5.28089 3.32166 5.2894C3.28397 5.3202 3.24953 5.35383 3.22076 5.39233C3.21914 5.39476 3.21671 5.39597 3.21509 5.3984L0.117175 9.6362C-0.00155513 9.7987 -0.0323519 10.0102 0.0353199 10.1999C0.102992 10.3899 0.260623 10.5334 0.455939 10.5836L3.14417 11.2778V17.9238C3.14417 18.1908 3.31882 18.4271 3.57452 18.5053L13.4173 21.5128C13.4206 21.5144 13.4242 21.5132 13.4275 21.5148C13.4801 21.5294 13.5352 21.5387 13.5904 21.5392C13.5916 21.5392 13.5932 21.54 13.5948 21.54H13.5952C13.6532 21.54 13.7099 21.5294 13.7666 21.5128C13.7845 21.5071 13.8011 21.4994 13.8193 21.4917C13.8432 21.4828 13.8667 21.4763 13.8902 21.4642L20.9532 17.5445C21.1465 17.4371 21.266 17.2337 21.266 17.0128V10.368L23.6552 9.22126C23.8161 9.14426 23.9348 8.9996 23.9802 8.82698C24.0252 8.65395 23.9924 8.47038 23.8898 8.3241L20.9038 4.06401ZM11.1072 3.69202L18.2569 4.74154L13.5142 6.94675L6.00381 5.56292L11.1072 3.69202ZM3.97163 6.42442L12.5773 8.01046L10.0479 11.8049L1.62743 9.63093L3.97163 6.42442ZM4.35983 17.474V11.5914L10.1618 13.0895C10.2124 13.1021 10.2631 13.1089 10.3137 13.1089C10.5135 13.1089 10.7048 13.0101 10.8195 12.8383L12.987 9.58717V20.1099L4.35983 17.474ZM20.05 16.6546L14.2022 19.8992V10.2983L15.27 12.5672C15.3393 12.7134 15.4641 12.8269 15.6161 12.8804C15.6821 12.9047 15.751 12.9157 15.8195 12.9157C15.9098 12.9157 15.9994 12.8954 16.0825 12.8565L20.0492 10.9528L20.05 16.6546ZM16.1096 11.4954L14.4048 7.87349L20.2003 5.17878L22.4833 8.43553L16.1096 11.4954Z" fill="black"/>
</g>
<defs>
<clipPath id="clip0">
<rect width="24" height="24" fill="white"/>
</clipPath>
</defs>
</svg>
