<svg width="24" height="24" viewBox="0 0 24 24" fill="none" xmlns="http://www.w3.org/2000/svg">
<g clip-path="url(#clip0)">
<path d="M16.957 13.688L16.096 13.4722L13.5105 16.2522C13.1175 16.6743 12.5669 16.9145 11.9898 16.9145C11.4132 16.9145 10.8616 16.6743 10.4691 16.2511L7.88668 13.4717L7.03247 13.6874C4.46516 14.3295 2.66992 16.6374 2.66992 19.2848V22.7604C2.66992 23.4446 3.21271 24.0004 3.89639 24.0004H20.0842C20.7679 24.0004 21.3279 23.4456 21.3279 22.7604V19.2848C21.3284 16.6379 19.5253 14.3306 16.957 13.688Z" fill="black"/>
<path d="M11.5758 6.99361H12.4248C12.5283 7.70692 13.1506 8.26426 13.9035 8.26426C14.728 8.26426 15.3972 7.59566 15.3972 6.77057C15.3972 5.94547 14.7275 5.92676 13.903 5.92676C13.198 5.92676 12.6073 5.94184 12.4498 6.46798H11.5504C11.3933 5.94236 10.8027 5.92676 10.0972 5.92676C9.27264 5.92676 8.60352 5.94132 8.60352 6.76693C8.60352 7.59254 9.27264 8.26634 10.0972 8.26634C10.8485 8.26634 11.4713 7.70692 11.5758 6.99361Z" fill="black"/>
<path d="M6.92802 9.63286C7.87113 11.948 9.74488 13.8571 11.9638 13.8571C11.9664 13.8571 12.0351 13.8571 12.0372 13.8571C14.2566 13.8571 16.1294 11.9485 17.0735 9.63286C17.7312 9.48156 18.3306 8.9315 18.4294 7.72532C18.5235 6.59088 18.1804 6.08137 17.7177 5.85625C17.5326 0.726312 14.8878 0 12.0366 0C12.0252 0 12.0127 0 12.0008 0C11.9888 0 11.9763 0 11.9644 0C9.11423 0 6.46894 0.726312 6.28385 5.85625C5.82165 6.08137 5.47851 6.59088 5.5721 7.72532C5.67088 8.93098 6.27137 9.48156 6.92802 9.63286ZM12.0044 12.7861C12.0034 12.7861 12.0018 12.7861 12.0002 12.7861C11.9992 12.7861 11.9971 12.7861 11.9961 12.7861C11.237 12.783 10.6246 12.2012 10.6246 11.5019C10.6246 10.8011 11.2396 10.2183 12.0002 10.2183C12.7609 10.2183 13.3759 10.8016 13.3759 11.5019C13.3759 12.2012 12.7635 12.783 12.0044 12.7861ZM11.9992 2.21377H12.0002H12.0013C16.3747 1.11728 16.6456 5.28071 16.6217 6.93194C16.5952 8.7017 15.663 10.563 14.4407 11.7151C14.4469 11.6449 14.4516 11.5742 14.4516 11.5019C14.4516 10.2089 13.3546 9.1431 12.0013 9.1431C10.648 9.1431 9.55095 10.2089 9.55095 11.5019C9.55095 11.5742 9.55511 11.6449 9.56187 11.7151C8.33853 10.563 7.40633 8.7017 7.38034 6.93194C7.35538 5.28123 7.62573 1.11728 11.9992 2.21377Z" fill="black"/>
</g>
<defs>
<clipPath id="clip0">
<rect width="24" height="24" fill="white"/>
</clipPath>
</defs>
</svg>
