<svg width="24" height="24" viewBox="0 0 24 24" fill="none" xmlns="http://www.w3.org/2000/svg">
<g clip-path="url(#clip0)">
<path d="M22.7886 0.890625H5.22931C4.56134 0.890625 4.01807 1.43408 4.01807 2.10205V3.94098H1.21143C0.543457 3.94098 0 4.48444 0 5.1524V20.7402C0 22.0356 1.04974 23.0907 2.34357 23.1H2.34833C2.35254 23.1002 2.35638 23.1006 2.3606 23.1006H14.7969C14.991 23.1006 15.1485 22.9433 15.1485 22.749C15.1485 22.5549 14.991 22.3975 14.7969 22.3975H4.03986C4.46082 21.971 4.72119 21.3854 4.72119 20.7402V12.5189C4.72119 12.3248 4.56372 12.1674 4.36963 12.1674C4.17535 12.1674 4.01807 12.3248 4.01807 12.5189V20.7402C4.01807 21.6509 3.27942 22.3923 2.36957 22.3973C2.36664 22.3973 2.36371 22.3969 2.3606 22.3969C1.44672 22.3967 0.703125 21.6535 0.703125 20.7402V5.1524C0.703125 4.87225 0.931091 4.6441 1.21143 4.6441H4.01807V11.2064C4.01807 11.4007 4.17535 11.558 4.36963 11.558C4.56372 11.558 4.72119 11.4007 4.72119 11.2064V2.10205C4.72119 1.82172 4.94916 1.59375 5.22931 1.59375H22.7886C23.0689 1.59375 23.2969 1.82172 23.2969 2.10205V20.7402C23.2969 21.6541 22.5533 22.3975 21.6394 22.3975H16.1094C15.9152 22.3975 15.7579 22.5549 15.7579 22.749C15.7579 22.9433 15.9152 23.1006 16.1094 23.1006H21.6394C22.9411 23.1006 24 22.0417 24 20.7402V2.10205C24 1.43408 23.4565 0.890625 22.7886 0.890625V0.890625Z" fill="black"/>
<path d="M7.70294 14.919H12.5247C12.9833 14.919 13.3565 14.5458 13.3565 14.0872V9.26544C13.3565 8.80676 12.9833 8.43359 12.5247 8.43359H7.70294C7.24426 8.43359 6.87109 8.80676 6.87109 9.26544V14.0872C6.87109 14.5458 7.24426 14.919 7.70294 14.919V14.919ZM7.57422 9.26544C7.57422 9.1944 7.6319 9.13672 7.70294 9.13672H12.5247C12.5955 9.13672 12.6534 9.1944 12.6534 9.26544V14.0872C12.6534 14.158 12.5955 14.2159 12.5247 14.2159H7.70294C7.6319 14.2159 7.57422 14.158 7.57422 14.0872V9.26544Z" fill="black"/>
<path d="M14.6348 9.13672H21.1597C21.3538 9.13672 21.5113 8.97943 21.5113 8.78516C21.5113 8.59088 21.3538 8.43359 21.1597 8.43359H14.6348C14.4407 8.43359 14.2832 8.59088 14.2832 8.78516C14.2832 8.97943 14.4407 9.13672 14.6348 9.13672V9.13672Z" fill="black"/>
<path d="M14.6348 12.0273H21.1597C21.3538 12.0273 21.5113 11.8699 21.5113 11.6758C21.5113 11.4815 21.3538 11.3242 21.1597 11.3242H14.6348C14.4407 11.3242 14.2832 11.4815 14.2832 11.6758C14.2832 11.8699 14.4407 12.0273 14.6348 12.0273V12.0273Z" fill="black"/>
<path d="M14.6348 14.9189H21.1597C21.3538 14.9189 21.5113 14.7615 21.5113 14.5674C21.5113 14.3731 21.3538 14.2158 21.1597 14.2158H14.6348C14.4407 14.2158 14.2832 14.3731 14.2832 14.5674C14.2832 14.7615 14.4407 14.9189 14.6348 14.9189V14.9189Z" fill="black"/>
<path d="M7.22266 17.8096H21.1594C21.3535 17.8096 21.5109 17.6523 21.5109 17.458C21.5109 17.2639 21.3535 17.1064 21.1594 17.1064H7.22266C7.02856 17.1064 6.87109 17.2639 6.87109 17.458C6.87109 17.6523 7.02856 17.8096 7.22266 17.8096V17.8096Z" fill="black"/>
<path d="M7.22266 20.7012H21.1594C21.3535 20.7012 21.5109 20.5439 21.5109 20.3496C21.5109 20.1553 21.3535 19.998 21.1594 19.998H7.22266C7.02856 19.998 6.87109 20.1553 6.87109 20.3496C6.87109 20.5439 7.02856 20.7012 7.22266 20.7012V20.7012Z" fill="black"/>
<path d="M6.87891 6.63416V2.91931C6.87891 2.84296 6.91516 2.78473 6.98767 2.74481C7.06018 2.70471 7.14807 2.68457 7.25098 2.68457C7.38849 2.68457 7.49323 2.70947 7.56592 2.75909C7.63824 2.80872 7.71844 2.91565 7.80634 3.07953L8.91101 5.21472V2.91364C8.91101 2.83728 8.94727 2.78015 9.01978 2.74188C9.0921 2.7038 9.17999 2.68457 9.28308 2.68457C9.38617 2.68457 9.47388 2.7038 9.54639 2.74188C9.6189 2.78015 9.65515 2.83728 9.65515 2.91364V6.63416C9.65515 6.70685 9.6178 6.76398 9.54346 6.80591C9.46912 6.84802 9.38232 6.8689 9.28308 6.8689C9.08075 6.8689 8.93756 6.79071 8.8537 6.63416L7.62305 4.33307V6.63416C7.62305 6.70685 7.58588 6.76398 7.51154 6.80591C7.43719 6.84802 7.35022 6.8689 7.25098 6.8689C7.14807 6.8689 7.06018 6.84802 6.98785 6.80591C6.91516 6.76398 6.87891 6.70685 6.87891 6.63416Z" fill="black"/>
<path d="M10.3418 6.63416V2.91931C10.3418 2.8468 10.3742 2.78967 10.4392 2.74756C10.504 2.70563 10.5802 2.68457 10.6681 2.68457H12.7059C12.782 2.68457 12.8405 2.71716 12.8804 2.78198C12.9205 2.8468 12.9406 2.92133 12.9406 3.00519C12.9406 3.09674 12.9196 3.17511 12.8776 3.23993C12.8355 3.30493 12.7782 3.33716 12.7059 3.33716H11.0859V4.48193H11.9561C12.0284 4.48193 12.0857 4.5116 12.1278 4.57074C12.1697 4.62988 12.1908 4.69946 12.1908 4.77966C12.1908 4.85217 12.1707 4.91791 12.1306 4.97723C12.0905 5.03638 12.0324 5.06586 11.9561 5.06586H11.0859V6.21649H12.7059C12.7782 6.21649 12.8355 6.2489 12.8776 6.31372C12.9196 6.37872 12.9406 6.45691 12.9406 6.54846C12.9406 6.63232 12.9205 6.70685 12.8804 6.77167C12.8405 6.83667 12.782 6.8689 12.7059 6.8689H10.6681C10.5802 6.8689 10.504 6.84802 10.4392 6.80609C10.3742 6.76398 10.3418 6.70685 10.3418 6.63416V6.63416Z" fill="black"/>
<path d="M13.3145 2.9823C13.3145 2.9021 13.3659 2.83252 13.469 2.77338C13.5719 2.71423 13.6788 2.68457 13.7894 2.68457C13.9269 2.68457 14.009 2.73419 14.0355 2.83344L14.9401 5.93597L15.4266 3.94397C15.4608 3.80646 15.5829 3.73779 15.7928 3.73779C15.999 3.73779 16.1191 3.80646 16.1535 3.94397L16.64 5.93597L17.5444 2.83344C17.5711 2.73419 17.6531 2.68457 17.7906 2.68457C17.9012 2.68457 18.008 2.71423 18.1111 2.77338C18.2142 2.83252 18.2656 2.9021 18.2656 2.9823C18.2656 3.00519 18.2618 3.02808 18.2543 3.05096L17.1208 6.65137C17.0635 6.81946 16.9013 6.90332 16.6343 6.90332C16.5199 6.90332 16.4168 6.88135 16.3253 6.8374C16.2337 6.79364 16.1782 6.73157 16.1592 6.65137L15.793 5.10596L15.4209 6.65137C15.4017 6.73157 15.3464 6.79364 15.2548 6.8374C15.1633 6.88135 15.0602 6.90332 14.9457 6.90332C14.8275 6.90332 14.7225 6.88135 14.631 6.8374C14.5392 6.79364 14.4821 6.73157 14.4592 6.65137L13.3258 3.05096C13.3181 3.02808 13.3145 3.00519 13.3145 2.9823V2.9823Z" fill="black"/>
<path d="M18.4531 6.21106C18.4531 6.12335 18.4865 6.03455 18.5533 5.94482C18.6199 5.85529 18.6954 5.81042 18.7794 5.81042C18.8289 5.81042 18.8853 5.83423 18.9482 5.88184C19.0112 5.92926 19.0722 5.98199 19.1313 6.03931C19.1905 6.0968 19.2755 6.14935 19.3862 6.19696C19.4968 6.24457 19.619 6.26819 19.7524 6.26819C19.9357 6.26819 20.0883 6.22626 20.2104 6.14221C20.3325 6.05835 20.3935 5.93439 20.3935 5.77032C20.3935 5.6557 20.3602 5.55371 20.2933 5.46399C20.2267 5.37445 20.1388 5.29993 20.03 5.24078C19.9214 5.18164 19.8021 5.12433 19.6724 5.06903C19.5426 5.01373 19.4119 4.95166 19.2802 4.883C19.1486 4.81433 19.0284 4.73706 18.9197 4.65118C18.8109 4.56531 18.723 4.45087 18.6564 4.30768C18.5895 4.16467 18.5562 4.00153 18.5562 3.81842C18.5562 3.61316 18.5972 3.43188 18.6793 3.27515C18.7613 3.11823 18.871 2.99628 19.0083 2.90912C19.1456 2.82196 19.2925 2.75806 19.449 2.71741C19.6054 2.67676 19.7715 2.65625 19.9471 2.65625C20.0461 2.65625 20.1511 2.66321 20.2618 2.67694C20.3724 2.69067 20.4898 2.7132 20.614 2.74451C20.7379 2.77582 20.839 2.82489 20.9172 2.89136C20.9954 2.95801 21.0345 3.03638 21.0345 3.12665C21.0345 3.21161 21.0078 3.2995 20.9545 3.39032C20.9011 3.48114 20.8286 3.52637 20.737 3.52637C20.7026 3.52637 20.609 3.49011 20.4565 3.4176C20.3038 3.34509 20.134 3.30884 19.9471 3.30884C19.7409 3.30884 19.5816 3.34802 19.4692 3.42621C19.3566 3.50458 19.3002 3.61224 19.3002 3.74957C19.3002 3.86035 19.3459 3.95667 19.4377 4.0387C19.5292 4.12073 19.6428 4.18756 19.7783 4.23901C19.9136 4.29047 20.0606 4.35547 20.219 4.43365C20.3772 4.51184 20.5242 4.5968 20.6597 4.68835C20.795 4.77991 20.9088 4.91248 21.0003 5.08606C21.0919 5.25983 21.1376 5.46307 21.1376 5.6958C21.1376 6.0871 21.0126 6.38922 20.7628 6.60181C20.5127 6.81439 20.1837 6.92078 19.7753 6.92078C19.4128 6.92078 19.1019 6.84625 18.8424 6.69739C18.5828 6.54889 18.4531 6.38666 18.4531 6.21106V6.21106Z" fill="black"/>
</g>
<defs>
<clipPath id="clip0">
<rect width="24" height="24" fill="white"/>
</clipPath>
</defs>
</svg>
