<svg width="24" height="25" viewBox="0 0 24 25" fill="none" xmlns="http://www.w3.org/2000/svg">
<path d="M23.2492 11.8528C22.4468 11.1914 21.1784 11.1346 20.346 12.0281L18.2794 14.2466C18.0122 13.3879 17.2102 12.7626 16.2649 12.7626H12.577C12.2971 12.7626 12.2034 12.6557 11.7173 12.2812C9.864 10.6654 7.08028 10.6706 5.23256 12.2967L3.87703 13.4901C3.2677 13.1676 2.55619 13.1596 1.94353 13.4657L0.388781 14.2429C0.0414378 14.4168 -0.0991402 14.8391 0.0742503 15.1865L4.29277 23.6239C4.46667 23.9713 4.88897 24.1118 5.23631 23.9384L6.79106 23.1608C7.55742 22.7779 7.98394 21.9959 7.95628 21.2001H16.2648C17.8055 21.2001 19.2778 20.4641 20.2021 19.2313L23.5774 14.7305C24.2322 13.8581 24.1286 12.5788 23.2492 11.8528ZM6.162 21.9031L5.23626 22.3662L1.64634 15.1865L2.57255 14.7234C2.91989 14.5499 3.34172 14.6901 3.51562 15.0379L6.47653 20.96C6.64997 21.3074 6.50934 21.7292 6.162 21.9031ZM22.4524 13.8867L19.0772 18.3876C18.4168 19.2683 17.3654 19.7938 16.2649 19.7938H7.46555L4.83084 14.5237L6.16153 13.3523C7.48565 12.1875 9.48243 12.1875 10.8066 13.3523C11.5865 14.039 12.0716 14.1689 12.5769 14.1689H16.2648C16.6525 14.1689 16.9679 14.4844 16.9679 14.872C16.9679 15.2596 16.6524 15.5751 16.2648 15.5751H12.674C12.2858 15.5751 11.9709 15.8901 11.9709 16.2782C11.9709 16.6663 12.2859 16.9813 12.674 16.9813H16.7359C17.3195 16.9813 17.882 16.7366 18.2794 16.3096L21.3749 12.9867C21.658 12.6829 22.092 12.7082 22.3582 12.9412C22.6366 13.1849 22.6667 13.6017 22.4524 13.8867Z" fill="black"/>
<path d="M14.784 4.81078C15.2653 4.30596 15.562 3.62347 15.562 2.87203C15.562 1.32423 14.3115 0.0126953 12.7497 0.0126953C11.1997 0.0126953 9.89053 1.32189 9.89053 2.87203C9.89053 3.60046 10.176 4.2881 10.6944 4.81641C9.4087 5.53733 8.48438 6.92106 8.48438 8.54386V9.24698C8.48438 9.63507 8.79937 9.95009 9.18745 9.95009H16.2652C16.6532 9.95009 16.9682 9.63507 16.9682 9.24698V8.54386C16.9682 6.95294 16.0932 5.54765 14.784 4.81078ZM12.7497 1.41897C13.5119 1.41897 14.1559 2.08458 14.1559 2.87207C14.1559 3.64738 13.525 4.2783 12.7497 4.2783C11.9623 4.2783 11.2967 3.63425 11.2967 2.87207C11.2967 2.09818 11.9759 1.41897 12.7497 1.41897ZM9.89053 8.54386C9.89053 6.99372 11.1997 5.68453 12.7497 5.68453C14.3002 5.68453 15.562 6.967 15.562 8.54386H9.89053Z" fill="black"/>
</svg>
