<svg xmlns="http://www.w3.org/2000/svg" width="25" height="28">
    <path fill="#0E76BC" fill-rule="evenodd" d="M23.23 14.941v12.688c0 .199-.16.36-.359.36H2.136a.36.36 0 0 1-.359-.36V14.941a.36.36 0 0 1 .359-.359h8.183v13.047h4.368V14.582h8.184c.199 0 .359.161.359.359zm1.776-6.208v4.807a.36.36 0 0 1-.359.359h-9.96V8.733h-4.368v5.166H.361a.358.358 0 0 1-.358-.359V8.733c0-.198.159-.359.358-.359h10.022c-2.324-.956-4.981-3.075-5.592-5.03-.363-1.16-.003-2.189 1.015-2.897.42-.293.868-.442 1.331-.442 2.374 0 4.4 4.054 5.399 6.479.569-2.167 1.723-5.34 3.61-5.34.352 0 .705.11 1.047.329.792.503.975 1.128.991 1.565.059 1.707-2.255 3.559-4.427 5.16-.084.062-.164.12-.238.176h11.128a.36.36 0 0 1 .359.359zm-13.131-.997c-1.074-2.852-3.069-6.652-4.738-6.652-.242 0-.476.081-.718.249-.633.441-.823.978-.602 1.689.611 1.952 3.922 4.258 6.058 4.714zm1.634-.695c1.334-.995 3.639-2.808 3.599-3.966-.006-.167-.064-.419-.491-.692a.879.879 0 0 0-.471-.16c-1.017 0-2.049 2.524-2.637 4.818z"/>
</svg>
