<svg 
 xmlns="http://www.w3.org/2000/svg"
 xmlns:xlink="http://www.w3.org/1999/xlink"
 width="36px" height="40px">
<path fill-rule="evenodd"  fill="rgb(255, 255, 255)"
 d="M32.721,21.684 L32.721,39.328 C32.721,39.605 32.498,39.829 32.221,39.829 L3.320,39.829 C3.045,39.829 2.820,39.605 2.820,39.328 L2.820,21.684 C2.820,21.407 3.045,21.184 3.320,21.184 L14.726,21.184 L14.726,39.328 L20.814,39.328 L20.814,21.184 L32.221,21.184 C32.498,21.184 32.721,21.407 32.721,21.684 ZM35.195,13.051 L35.195,19.735 C35.195,20.011 34.971,20.235 34.695,20.235 L23.549,20.235 L20.814,20.235 L20.814,13.051 L14.726,13.051 L14.726,20.235 L11.992,20.235 L0.848,20.235 C0.570,20.235 0.348,20.011 0.348,19.735 L0.348,13.051 C0.348,12.775 0.570,12.551 0.848,12.551 L14.814,12.551 C11.576,11.222 7.873,8.276 7.021,5.557 C6.516,3.944 7.017,2.513 8.435,1.528 C9.021,1.120 9.646,0.913 10.291,0.913 C13.599,0.913 16.424,6.551 17.816,9.923 C18.609,6.910 20.217,2.497 22.848,2.497 C23.338,2.497 23.830,2.651 24.307,2.955 C25.410,3.654 25.666,4.524 25.687,5.130 C25.769,7.504 22.545,10.079 19.518,12.306 C19.400,12.393 19.289,12.474 19.186,12.551 L34.695,12.551 C34.971,12.551 35.195,12.775 35.195,13.051 ZM16.894,11.663 C15.398,7.699 12.617,2.414 10.291,2.414 C9.953,2.414 9.627,2.527 9.291,2.760 C8.408,3.372 8.142,4.119 8.451,5.109 C9.303,7.823 13.918,11.030 16.894,11.663 ZM19.172,10.698 C21.031,9.314 24.244,6.792 24.187,5.182 C24.180,4.951 24.099,4.599 23.504,4.220 C23.267,4.070 23.053,3.997 22.848,3.997 C21.430,3.997 19.992,7.507 19.172,10.698 Z"/>
</svg>